<svg width="40" height="40" viewBox="0 0 40 40" fill="none" xmlns="http://www.w3.org/2000/svg">
<rect width="40" height="40" rx="6" fill="url(#paint0_linear_1001_1984)"/>
<rect width="40" height="40" rx="6" fill="url(#paint1_linear_1001_1984)"/>
<mask id="mask0_1001_1984" style="mask-type:alpha" maskUnits="userSpaceOnUse" x="3" y="6" width="34" height="30">
<rect x="3.88867" y="6.13086" width="32.2157" height="28.9941" fill="#D9D9D9"/>
</mask>
<g mask="url(#mask0_1001_1984)">
<path d="M31.9422 11.3344C31.9422 10.9581 31.8147 10.6425 31.5597 10.3875C31.3056 10.1333 30.9904 10.0063 30.6141 10.0063L29.2859 10.0063L29.2859 8.6781L23.9732 8.6781C23.5969 8.6781 23.2812 8.8056 23.0262 9.06061C22.7721 9.31474 22.645 9.62996 22.645 10.0063L22.645 11.3344L13.3478 11.3344C11.8869 11.3344 10.6362 11.8546 9.59576 12.895C8.55536 13.9354 8.03516 15.1861 8.03516 16.6471C8.03516 18.1081 8.55536 19.3588 9.59576 20.3992C10.6362 21.4396 11.8869 21.9598 13.3478 21.9598L26.6295 21.9598C27.36 21.9598 27.9856 22.2201 28.5062 22.7408C29.026 23.2605 29.2859 23.8857 29.2859 24.6161C29.2859 25.3466 29.026 25.9722 28.5062 26.4928C27.9856 27.0126 27.36 27.2725 26.6295 27.2725L17.3323 27.2725L17.3323 25.9443C17.3323 25.568 17.2048 25.2528 16.9498 24.9987C16.6957 24.7436 16.3805 24.6161 16.0042 24.6161L10.6915 24.6161L10.6915 25.9443L9.36333 25.9443C8.98701 25.9443 8.67135 26.0718 8.41634 26.3268C8.16222 26.581 8.03516 26.8962 8.03516 27.2725L8.03516 29.9288C8.03516 30.3051 8.16222 30.6204 8.41634 30.8745C8.67135 31.1295 8.98701 31.257 9.36333 31.257L10.6915 31.257L10.6915 32.5852L16.0042 32.5852C16.3805 32.5852 16.6957 32.4577 16.9498 32.2027C17.2048 31.9485 17.3324 31.6333 17.3324 31.257L17.3324 29.9288L26.6295 29.9288C28.0905 29.9288 29.3412 29.4086 30.3816 28.3682C31.422 27.3278 31.9422 26.0771 31.9422 24.6161C31.9422 23.1552 31.422 21.9045 30.3816 20.8641C29.3412 19.8237 28.0905 19.3035 26.6295 19.3035L13.3478 19.3035C12.6173 19.3035 11.9922 19.0436 11.4725 18.5238C10.9518 18.0032 10.6915 17.3776 10.6915 16.6471C10.6915 15.9166 10.9518 15.2915 11.4725 14.7717C11.9922 14.2511 12.6173 13.9908 13.3478 13.9908L22.645 13.9908L22.645 15.319C22.645 15.6953 22.7721 16.0109 23.0262 16.2659C23.2812 16.5201 23.5969 16.6471 23.9732 16.6471L29.2859 16.6471L29.2859 15.319L30.6141 15.319C30.9904 15.319 31.3056 15.1919 31.5597 14.9378C31.8147 14.6828 31.9422 14.3671 31.9422 13.9908L31.9422 11.3344Z" fill="white"/>
</g>
<defs>
<linearGradient id="paint0_linear_1001_1984" x1="4.4375" y1="-10.5274" x2="20.2265" y2="57.1216" gradientUnits="userSpaceOnUse">
<stop stop-color="#17E180"/>
<stop offset="1" stop-color="#009883"/>
</linearGradient>
<linearGradient id="paint1_linear_1001_1984" x1="-2.97705" y1="-2.57646" x2="49.1039" y2="9.61215" gradientUnits="userSpaceOnUse">
<stop offset="0.00972591" stop-color="#44C3F9"/>
<stop offset="1" stop-color="#27E4A0"/>
</linearGradient>
</defs>
</svg>
